<svg aria-roledescription="er" role="graphics-document document" viewBox="0 0 236.86312866210938 635" style="max-width: 236.863px; background-color: white;" xmlns:xlink="http://www.w3.org/1999/xlink" xmlns="http://www.w3.org/2000/svg" width="100%" id="my-svg"><style>#my-svg{font-family:"trebuchet ms",verdana,arial,sans-serif;font-size:16px;fill:#000000;}#my-svg .error-icon{fill:#552222;}#my-svg .error-text{fill:#552222;stroke:#552222;}#my-svg .edge-thickness-normal{stroke-width:2px;}#my-svg .edge-thickness-thick{stroke-width:3.5px;}#my-svg .edge-pattern-solid{stroke-dasharray:0;}#my-svg .edge-pattern-dashed{stroke-dasharray:3;}#my-svg .edge-pattern-dotted{stroke-dasharray:2;}#my-svg .marker{fill:#000000;stroke:#000000;}#my-svg .marker.cross{stroke:#000000;}#my-svg svg{font-family:"trebuchet ms",verdana,arial,sans-serif;font-size:16px;}#my-svg .entityBox{fill:#cde498;stroke:#13540c;}#my-svg .attributeBoxOdd{fill:#ffffff;stroke:#13540c;}#my-svg .attributeBoxEven{fill:#f2f2f2;stroke:#13540c;}#my-svg .relationshipLabelBox{fill:hsl(78.1578947368, 58.4615384615%, 84.5098039216%);opacity:0.7;background-color:hsl(78.1578947368, 58.4615384615%, 84.5098039216%);}#my-svg .relationshipLabelBox rect{opacity:0.5;}#my-svg .relationshipLine{stroke:#000000;}#my-svg .entityTitleText{text-anchor:middle;font-size:18px;fill:#000000;}#my-svg #MD_PARENT_START{fill:#f5f5f5!important;stroke:#000000!important;stroke-width:1;}#my-svg #MD_PARENT_END{fill:#f5f5f5!important;stroke:#000000!important;stroke-width:1;}#my-svg :root{--mermaid-font-family:"trebuchet ms",verdana,arial,sans-serif;}</style><g/><defs><marker orient="auto" markerHeight="240" markerWidth="190" refY="7" refX="0" id="MD_PARENT_START"><path d="M 18,7 L9,13 L1,7 L9,1 Z"/></marker></defs><defs><marker orient="auto" markerHeight="28" markerWidth="20" refY="7" refX="19" id="MD_PARENT_END"><path d="M 18,7 L9,13 L1,7 L9,1 Z"/></marker></defs><defs><marker orient="auto" markerHeight="18" markerWidth="18" refY="9" refX="0" id="ONLY_ONE_START"><path d="M9,0 L9,18 M15,0 L15,18" fill="none" stroke="gray"/></marker></defs><defs><marker orient="auto" markerHeight="18" markerWidth="18" refY="9" refX="18" id="ONLY_ONE_END"><path d="M3,0 L3,18 M9,0 L9,18" fill="none" stroke="gray"/></marker></defs><defs><marker orient="auto" markerHeight="18" markerWidth="30" refY="9" refX="0" id="ZERO_OR_ONE_START"><circle r="6" cy="9" cx="21" fill="white" stroke="gray"/><path d="M9,0 L9,18" fill="none" stroke="gray"/></marker></defs><defs><marker orient="auto" markerHeight="18" markerWidth="30" refY="9" refX="30" id="ZERO_OR_ONE_END"><circle r="6" cy="9" cx="9" fill="white" stroke="gray"/><path d="M21,0 L21,18" fill="none" stroke="gray"/></marker></defs><defs><marker orient="auto" markerHeight="36" markerWidth="45" refY="18" refX="18" id="ONE_OR_MORE_START"><path d="M0,18 Q 18,0 36,18 Q 18,36 0,18 M42,9 L42,27" fill="none" stroke="gray"/></marker></defs><defs><marker orient="auto" markerHeight="36" markerWidth="45" refY="18" refX="27" id="ONE_OR_MORE_END"><path d="M3,9 L3,27 M9,18 Q27,0 45,18 Q27,36 9,18" fill="none" stroke="gray"/></marker></defs><defs><marker orient="auto" markerHeight="36" markerWidth="57" refY="18" refX="18" id="ZERO_OR_MORE_START"><circle r="6" cy="18" cx="48" fill="white" stroke="gray"/><path d="M0,18 Q18,0 36,18 Q18,36 0,18" fill="none" stroke="gray"/></marker></defs><defs><marker orient="auto" markerHeight="36" markerWidth="57" refY="18" refX="39" id="ZERO_OR_MORE_END"><circle r="6" cy="18" cx="9" fill="white" stroke="gray"/><path d="M21,18 Q39,0 57,18 Q39,36 21,18" fill="none" stroke="gray"/></marker></defs><path style="stroke: gray; fill: none;" marker-start="url(#ZERO_OR_MORE_START)" marker-end="url(#ZERO_OR_MORE_END)" d="M89.89079179886585,153L86.31425388756399,161.33333333333334C82.73771597626212,169.66666666666666,75.58464015365841,186.33333333333334,75.31498054923486,203C75.04532094481131,219.66666666666666,81.65907755856792,236.33333333333334,84.96595586544623,244.66666666666666L88.27283417232454,253" class="er relationshipLine"/><path style="stroke: gray; fill: none;" marker-start="url(#ZERO_OR_MORE_START)" marker-end="url(#ZERO_OR_MORE_END)" d="M144.6220405215309,505L148.59029448978484,496.6666666666667C152.5585484580388,488.3333333333333,160.49505639454676,471.6666666666667,161.1564320559224,455C161.81780771729805,438.3333333333333,155.20405110354145,421.6666666666667,151.89717279666314,413.3333333333333L148.59029448978484,405" class="er relationshipLine"/><path style="stroke: gray; fill: none;" marker-start="url(#ZERO_OR_ONE_START)" marker-end="url(#ONLY_ONE_END)" d="M88.27283417232454,405L84.96595586544623,413.3333333333333C81.65907755856792,421.6666666666667,75.04532094481131,438.3333333333333,75.70669660618697,455C76.36807226756262,471.6666666666667,84.30458020407056,488.3333333333333,88.27283417232452,496.6666666666667L92.2410881405785,505" class="er relationshipLine"/><path style="stroke: gray; fill: none;" marker-start="url(#ZERO_OR_ONE_START)" marker-end="url(#ONLY_ONE_END)" d="M148.59029448978484,253L151.89717279666314,244.66666666666666C155.20405110354145,236.33333333333334,161.81780771729805,219.66666666666666,161.54814811287451,203C161.27848850845098,186.33333333333334,154.12541268584724,169.66666666666666,150.5488747745454,161.33333333333334L146.97233686324353,153" class="er relationshipLine"/><g transform="translate(68.43156433105469,20 )" id="entity-stock-ad5141af-b1e3-5045-8f5b-0dee1e6c6ceb"><rect height="133" width="100" y="0" x="0" class="er entityBox"/><text style="dominant-baseline: middle; text-anchor: middle; font-size: 12px;" transform="translate(50,12)" y="0" x="0" id="text-entity-stock-ad5141af-b1e3-5045-8f5b-0dee1e6c6ceb" class="er entityLabel">stock</text><rect height="23" width="38.358744303385414" y="24" x="0" class="er attributeBoxOdd"/><text style="dominant-baseline: middle; font-size: 10.2px;" transform="translate(5,35.5)" y="0" x="0" id="text-entity-stock-ad5141af-b1e3-5045-8f5b-0dee1e6c6ceb-attr-1-type" class="er entityLabel">String</text><rect height="23" width="37.22956339518229" y="24" x="38.358744303385414" class="er attributeBoxOdd"/><text style="dominant-baseline: middle; font-size: 10.2px;" transform="translate(43.358744303385414,35.5)" y="0" x="0" id="text-entity-stock-ad5141af-b1e3-5045-8f5b-0dee1e6c6ceb-attr-1-name" class="er entityLabel">id</text><rect height="23" width="24.411692301432293" y="24" x="75.5883076985677" class="er attributeBoxOdd"/><text style="dominant-baseline: middle; font-size: 10.2px;" transform="translate(80.5883076985677,35.5)" y="0" x="0" id="text-entity-stock-ad5141af-b1e3-5045-8f5b-0dee1e6c6ceb-attr-1-comment" class="er entityLabel">🗝️</text><rect height="21" width="38.358744303385414" y="47" x="0" class="er attributeBoxEven"/><text style="dominant-baseline: middle; font-size: 10.2px;" transform="translate(5,57.5)" y="0" x="0" id="text-entity-stock-ad5141af-b1e3-5045-8f5b-0dee1e6c6ceb-attr-2-type" class="er entityLabel">String</text><rect height="21" width="37.22956339518229" y="47" x="38.358744303385414" class="er attributeBoxEven"/><text style="dominant-baseline: middle; font-size: 10.2px;" transform="translate(43.358744303385414,57.5)" y="0" x="0" id="text-entity-stock-ad5141af-b1e3-5045-8f5b-0dee1e6c6ceb-attr-2-name" class="er entityLabel">ticker</text><rect height="21" width="24.411692301432293" y="47" x="75.5883076985677" class="er attributeBoxEven"/><text style="dominant-baseline: middle; font-size: 10.2px;" transform="translate(80.5883076985677,57.5)" y="0" x="0" id="text-entity-stock-ad5141af-b1e3-5045-8f5b-0dee1e6c6ceb-attr-2-comment" class="er entityLabel"/><rect height="21" width="38.358744303385414" y="68" x="0" class="er attributeBoxOdd"/><text style="dominant-baseline: middle; font-size: 10.2px;" transform="translate(5,78.5)" y="0" x="0" id="text-entity-stock-ad5141af-b1e3-5045-8f5b-0dee1e6c6ceb-attr-3-type" class="er entityLabel">String</text><rect height="21" width="37.22956339518229" y="68" x="38.358744303385414" class="er attributeBoxOdd"/><text style="dominant-baseline: middle; font-size: 10.2px;" transform="translate(43.358744303385414,78.5)" y="0" x="0" id="text-entity-stock-ad5141af-b1e3-5045-8f5b-0dee1e6c6ceb-attr-3-name" class="er entityLabel">name</text><rect height="21" width="24.411692301432293" y="68" x="75.5883076985677" class="er attributeBoxOdd"/><text style="dominant-baseline: middle; font-size: 10.2px;" transform="translate(80.5883076985677,78.5)" y="0" x="0" id="text-entity-stock-ad5141af-b1e3-5045-8f5b-0dee1e6c6ceb-attr-3-comment" class="er entityLabel"/><rect height="23" width="38.358744303385414" y="89" x="0" class="er attributeBoxEven"/><text style="dominant-baseline: middle; font-size: 10.2px;" transform="translate(5,100.5)" y="0" x="0" id="text-entity-stock-ad5141af-b1e3-5045-8f5b-0dee1e6c6ceb-attr-4-type" class="er entityLabel">String</text><rect height="23" width="37.22956339518229" y="89" x="38.358744303385414" class="er attributeBoxEven"/><text style="dominant-baseline: middle; font-size: 10.2px;" transform="translate(43.358744303385414,100.5)" y="0" x="0" id="text-entity-stock-ad5141af-b1e3-5045-8f5b-0dee1e6c6ceb-attr-4-name" class="er entityLabel">cnpj</text><rect height="23" width="24.411692301432293" y="89" x="75.5883076985677" class="er attributeBoxEven"/><text style="dominant-baseline: middle; font-size: 10.2px;" transform="translate(80.5883076985677,100.5)" y="0" x="0" id="text-entity-stock-ad5141af-b1e3-5045-8f5b-0dee1e6c6ceb-attr-4-comment" class="er entityLabel">❓</text><rect height="21" width="38.358744303385414" y="112" x="0" class="er attributeBoxOdd"/><text style="dominant-baseline: middle; font-size: 10.2px;" transform="translate(5,122.5)" y="0" x="0" id="text-entity-stock-ad5141af-b1e3-5045-8f5b-0dee1e6c6ceb-attr-5-type" class="er entityLabel">String</text><rect height="21" width="37.22956339518229" y="112" x="38.358744303385414" class="er attributeBoxOdd"/><text style="dominant-baseline: middle; font-size: 10.2px;" transform="translate(43.358744303385414,122.5)" y="0" x="0" id="text-entity-stock-ad5141af-b1e3-5045-8f5b-0dee1e6c6ceb-attr-5-name" class="er entityLabel">type</text><rect height="21" width="24.411692301432293" y="112" x="75.5883076985677" class="er attributeBoxOdd"/><text style="dominant-baseline: middle; font-size: 10.2px;" transform="translate(80.5883076985677,122.5)" y="0" x="0" id="text-entity-stock-ad5141af-b1e3-5045-8f5b-0dee1e6c6ceb-attr-5-comment" class="er entityLabel"/></g><g transform="translate(20,505 )" id="entity-note-1b3e525e-7858-5956-9e97-738434b41e52"><rect height="110" width="196.86312866210938" y="0" x="0" class="er entityBox"/><text style="dominant-baseline: middle; text-anchor: middle; font-size: 12px;" transform="translate(98.43156433105469,12)" y="0" x="0" id="text-entity-note-1b3e525e-7858-5956-9e97-738434b41e52" class="er entityLabel">note</text><rect height="23" width="54.113128662109375" y="24" x="0" class="er attributeBoxOdd"/><text style="dominant-baseline: middle; font-size: 10.2px;" transform="translate(5,35.5)" y="0" x="0" id="text-entity-note-1b3e525e-7858-5956-9e97-738434b41e52-attr-1-type" class="er entityLabel">String</text><rect height="23" width="119.75" y="24" x="54.113128662109375" class="er attributeBoxOdd"/><text style="dominant-baseline: middle; font-size: 10.2px;" transform="translate(59.113128662109375,35.5)" y="0" x="0" id="text-entity-note-1b3e525e-7858-5956-9e97-738434b41e52-attr-1-name" class="er entityLabel">id</text><rect height="23" width="23" y="24" x="173.86312866210938" class="er attributeBoxOdd"/><text style="dominant-baseline: middle; font-size: 10.2px;" transform="translate(178.86312866210938,35.5)" y="0" x="0" id="text-entity-note-1b3e525e-7858-5956-9e97-738434b41e52-attr-1-comment" class="er entityLabel">🗝️</text><rect height="21" width="54.113128662109375" y="47" x="0" class="er attributeBoxEven"/><text style="dominant-baseline: middle; font-size: 10.2px;" transform="translate(5,57.5)" y="0" x="0" id="text-entity-note-1b3e525e-7858-5956-9e97-738434b41e52-attr-2-type" class="er entityLabel">DateTime</text><rect height="21" width="119.75" y="47" x="54.113128662109375" class="er attributeBoxEven"/><text style="dominant-baseline: middle; font-size: 10.2px;" transform="translate(59.113128662109375,57.5)" y="0" x="0" id="text-entity-note-1b3e525e-7858-5956-9e97-738434b41e52-attr-2-name" class="er entityLabel">date</text><rect height="21" width="23" y="47" x="173.86312866210938" class="er attributeBoxEven"/><text style="dominant-baseline: middle; font-size: 10.2px;" transform="translate(178.86312866210938,57.5)" y="0" x="0" id="text-entity-note-1b3e525e-7858-5956-9e97-738434b41e52-attr-2-comment" class="er entityLabel"/><rect height="21" width="54.113128662109375" y="68" x="0" class="er attributeBoxOdd"/><text style="dominant-baseline: middle; font-size: 10.2px;" transform="translate(5,78.5)" y="0" x="0" id="text-entity-note-1b3e525e-7858-5956-9e97-738434b41e52-attr-3-type" class="er entityLabel">Decimal</text><rect height="21" width="119.75" y="68" x="54.113128662109375" class="er attributeBoxOdd"/><text style="dominant-baseline: middle; font-size: 10.2px;" transform="translate(59.113128662109375,78.5)" y="0" x="0" id="text-entity-note-1b3e525e-7858-5956-9e97-738434b41e52-attr-3-name" class="er entityLabel">fees</text><rect height="21" width="23" y="68" x="173.86312866210938" class="er attributeBoxOdd"/><text style="dominant-baseline: middle; font-size: 10.2px;" transform="translate(178.86312866210938,78.5)" y="0" x="0" id="text-entity-note-1b3e525e-7858-5956-9e97-738434b41e52-attr-3-comment" class="er entityLabel"/><rect height="21" width="54.113128662109375" y="89" x="0" class="er attributeBoxEven"/><text style="dominant-baseline: middle; font-size: 10.2px;" transform="translate(5,99.5)" y="0" x="0" id="text-entity-note-1b3e525e-7858-5956-9e97-738434b41e52-attr-4-type" class="er entityLabel">Decimal</text><rect height="21" width="119.75" y="89" x="54.113128662109375" class="er attributeBoxEven"/><text style="dominant-baseline: middle; font-size: 10.2px;" transform="translate(59.113128662109375,99.5)" y="0" x="0" id="text-entity-note-1b3e525e-7858-5956-9e97-738434b41e52-attr-4-name" class="er entityLabel">withholding_income_tax</text><rect height="21" width="23" y="89" x="173.86312866210938" class="er attributeBoxEven"/><text style="dominant-baseline: middle; font-size: 10.2px;" transform="translate(178.86312866210938,99.5)" y="0" x="0" id="text-entity-note-1b3e525e-7858-5956-9e97-738434b41e52-attr-4-comment" class="er entityLabel"/></g><g transform="translate(59.38294982910156,253 )" id="entity-order-f0240572-0a1d-50f9-b3d8-c69bf9e53203"><rect height="152" width="118.09722900390625" y="0" x="0" class="er entityBox"/><text style="dominant-baseline: middle; text-anchor: middle; font-size: 12px;" transform="translate(59.048614501953125,12)" y="0" x="0" id="text-entity-order-f0240572-0a1d-50f9-b3d8-c69bf9e53203" class="er entityLabel">order</text><rect height="23" width="47.390625" y="24" x="0" class="er attributeBoxOdd"/><text style="dominant-baseline: middle; font-size: 10.2px;" transform="translate(5,35.5)" y="0" x="0" id="text-entity-order-f0240572-0a1d-50f9-b3d8-c69bf9e53203-attr-1-type" class="er entityLabel">String</text><rect height="23" width="47.70660400390625" y="24" x="47.390625" class="er attributeBoxOdd"/><text style="dominant-baseline: middle; font-size: 10.2px;" transform="translate(52.390625,35.5)" y="0" x="0" id="text-entity-order-f0240572-0a1d-50f9-b3d8-c69bf9e53203-attr-1-name" class="er entityLabel">id</text><rect height="23" width="23" y="24" x="95.09722900390625" class="er attributeBoxOdd"/><text style="dominant-baseline: middle; font-size: 10.2px;" transform="translate(100.09722900390625,35.5)" y="0" x="0" id="text-entity-order-f0240572-0a1d-50f9-b3d8-c69bf9e53203-attr-1-comment" class="er entityLabel">🗝️</text><rect height="21" width="47.390625" y="47" x="0" class="er attributeBoxEven"/><text style="dominant-baseline: middle; font-size: 10.2px;" transform="translate(5,57.5)" y="0" x="0" id="text-entity-order-f0240572-0a1d-50f9-b3d8-c69bf9e53203-attr-2-type" class="er entityLabel">String</text><rect height="21" width="47.70660400390625" y="47" x="47.390625" class="er attributeBoxEven"/><text style="dominant-baseline: middle; font-size: 10.2px;" transform="translate(52.390625,57.5)" y="0" x="0" id="text-entity-order-f0240572-0a1d-50f9-b3d8-c69bf9e53203-attr-2-name" class="er entityLabel">note_id</text><rect height="21" width="23" y="47" x="95.09722900390625" class="er attributeBoxEven"/><text style="dominant-baseline: middle; font-size: 10.2px;" transform="translate(100.09722900390625,57.5)" y="0" x="0" id="text-entity-order-f0240572-0a1d-50f9-b3d8-c69bf9e53203-attr-2-comment" class="er entityLabel"/><rect height="21" width="47.390625" y="68" x="0" class="er attributeBoxOdd"/><text style="dominant-baseline: middle; font-size: 10.2px;" transform="translate(5,78.5)" y="0" x="0" id="text-entity-order-f0240572-0a1d-50f9-b3d8-c69bf9e53203-attr-3-type" class="er entityLabel">String</text><rect height="21" width="47.70660400390625" y="68" x="47.390625" class="er attributeBoxOdd"/><text style="dominant-baseline: middle; font-size: 10.2px;" transform="translate(52.390625,78.5)" y="0" x="0" id="text-entity-order-f0240572-0a1d-50f9-b3d8-c69bf9e53203-attr-3-name" class="er entityLabel">stock_id</text><rect height="21" width="23" y="68" x="95.09722900390625" class="er attributeBoxOdd"/><text style="dominant-baseline: middle; font-size: 10.2px;" transform="translate(100.09722900390625,78.5)" y="0" x="0" id="text-entity-order-f0240572-0a1d-50f9-b3d8-c69bf9e53203-attr-3-comment" class="er entityLabel"/><rect height="21" width="47.390625" y="89" x="0" class="er attributeBoxEven"/><text style="dominant-baseline: middle; font-size: 10.2px;" transform="translate(5,99.5)" y="0" x="0" id="text-entity-order-f0240572-0a1d-50f9-b3d8-c69bf9e53203-attr-4-type" class="er entityLabel">Boolean</text><rect height="21" width="47.70660400390625" y="89" x="47.390625" class="er attributeBoxEven"/><text style="dominant-baseline: middle; font-size: 10.2px;" transform="translate(52.390625,99.5)" y="0" x="0" id="text-entity-order-f0240572-0a1d-50f9-b3d8-c69bf9e53203-attr-4-name" class="er entityLabel">type</text><rect height="21" width="23" y="89" x="95.09722900390625" class="er attributeBoxEven"/><text style="dominant-baseline: middle; font-size: 10.2px;" transform="translate(100.09722900390625,99.5)" y="0" x="0" id="text-entity-order-f0240572-0a1d-50f9-b3d8-c69bf9e53203-attr-4-comment" class="er entityLabel"/><rect height="21" width="47.390625" y="110" x="0" class="er attributeBoxOdd"/><text style="dominant-baseline: middle; font-size: 10.2px;" transform="translate(5,120.5)" y="0" x="0" id="text-entity-order-f0240572-0a1d-50f9-b3d8-c69bf9e53203-attr-5-type" class="er entityLabel">Int</text><rect height="21" width="47.70660400390625" y="110" x="47.390625" class="er attributeBoxOdd"/><text style="dominant-baseline: middle; font-size: 10.2px;" transform="translate(52.390625,120.5)" y="0" x="0" id="text-entity-order-f0240572-0a1d-50f9-b3d8-c69bf9e53203-attr-5-name" class="er entityLabel">quantity</text><rect height="21" width="23" y="110" x="95.09722900390625" class="er attributeBoxOdd"/><text style="dominant-baseline: middle; font-size: 10.2px;" transform="translate(100.09722900390625,120.5)" y="0" x="0" id="text-entity-order-f0240572-0a1d-50f9-b3d8-c69bf9e53203-attr-5-comment" class="er entityLabel"/><rect height="21" width="47.390625" y="131" x="0" class="er attributeBoxEven"/><text style="dominant-baseline: middle; font-size: 10.2px;" transform="translate(5,141.5)" y="0" x="0" id="text-entity-order-f0240572-0a1d-50f9-b3d8-c69bf9e53203-attr-6-type" class="er entityLabel">Decimal</text><rect height="21" width="47.70660400390625" y="131" x="47.390625" class="er attributeBoxEven"/><text style="dominant-baseline: middle; font-size: 10.2px;" transform="translate(52.390625,141.5)" y="0" x="0" id="text-entity-order-f0240572-0a1d-50f9-b3d8-c69bf9e53203-attr-6-name" class="er entityLabel">price</text><rect height="21" width="23" y="131" x="95.09722900390625" class="er attributeBoxEven"/><text style="dominant-baseline: middle; font-size: 10.2px;" transform="translate(100.09722900390625,141.5)" y="0" x="0" id="text-entity-order-f0240572-0a1d-50f9-b3d8-c69bf9e53203-attr-6-comment" class="er entityLabel"/></g><rect height="14" width="30.6875" y="195.78939819335938" x="59.97503662109375" class="er relationshipLabelBox"/><text style="text-anchor: middle; dominant-baseline: middle; font-size: 12px;" y="202.78939819335938" x="75.31878662109375" id="rel1" class="er relationshipLabel">Order</text><rect height="14" width="30.6875" y="448.5419006347656" x="145.788330078125" class="er relationshipLabelBox"/><text style="text-anchor: middle; dominant-baseline: middle; font-size: 12px;" y="455.5419006347656" x="161.132080078125" id="rel2" class="er relationshipLabel">Order</text><rect height="14" width="23.681640625" y="448.5419006347656" x="63.89024353027344" class="er relationshipLabelBox"/><text style="text-anchor: middle; dominant-baseline: middle; font-size: 12px;" y="455.5419006347656" x="75.73106384277344" id="rel3" class="er relationshipLabel">note</text><rect height="14" width="29.0078125" y="195.78939819335938" x="147.04043579101562" class="er relationshipLabelBox"/><text style="text-anchor: middle; dominant-baseline: middle; font-size: 12px;" y="202.78939819335938" x="161.54434204101562" id="rel4" class="er relationshipLabel">stock</text></svg>